<svg width="38" height="37" viewBox="0 0 38 37" fill="none" xmlns="http://www.w3.org/2000/svg">
<path d="M26.125 0H11.875C5.31763 0 0 5.17769 0 11.5625V25.4375C0 31.8223 5.31763 37 11.875 37H26.125C32.6824 37 38 31.8223 38 25.4375V11.5625C38 5.17769 32.6824 0 26.125 0ZM34.4374 25.4375C34.4374 29.9006 30.7087 33.5312 26.125 33.5312H11.875C7.29126 33.5312 3.5625 29.9006 3.5625 25.4375V11.5625C3.5625 7.09938 7.29126 3.46875 11.875 3.46875H26.125C30.7087 3.46875 34.4374 7.09938 34.4374 11.5625V25.4375Z" fill="white"/>
<path d="M19 9.25C13.7536 9.25 9.5 13.3917 9.5 18.5C9.5 23.6083 13.7536 27.75 19 27.75C24.2464 27.75 28.5 23.6083 28.5 18.5C28.5 13.3917 24.2464 9.25 19 9.25ZM19 24.2812C15.7272 24.2812 13.0625 21.6866 13.0625 18.5C13.0625 15.3111 15.7272 12.7187 19 12.7187C22.2727 12.7187 24.9374 15.3111 24.9374 18.5C24.9374 21.6866 22.2727 24.2812 19 24.2812Z" fill="white"/>
<path d="M29.2128 9.78847C29.912 9.78847 30.4787 9.23662 30.4787 8.55589C30.4787 7.87518 29.912 7.32333 29.2128 7.32333C28.5136 7.32333 27.9468 7.87518 27.9468 8.55589C27.9468 9.23662 28.5136 9.78847 29.2128 9.78847Z" fill="white"/>
</svg>
